<svg xmlns="http://www.w3.org/2000/svg" width="2645px" height="1066px" viewBox="0 0 2645 1066" xmlns:xlink="http://www.w3.org/1999/xlink" style="display: block; width: 2645px; height: 1066px; overflow: auto;"><rect width="2645px" height="1066px" fill="#fff"/><clipPath id="ygc72_54"><rect x="25" y="25" width="2595" height="1016"/></clipPath><g clip-path="url(#ygc72_54)"><g transform="translate(35 33)" image-rendering="auto" shape-rendering="auto" style="pointer-events: visiblepainted;"><g style="box-sizing: initial;"><g><path fill="none" stroke="rgb(51,102,153)" d="M 395,400 L 305,400" stroke-opacity="1" stroke-width="1" stroke-linecap="butt" stroke-linejoin="miter" stroke-miterlimit="1.45"/><use transform="matrix(1 0 0 1 305 400)" xlink:href="#ygc72_0"/><use transform="matrix(-1 0 0 -1 395 400)" xlink:href="#ygc72_1"/></g><g><path fill="none" stroke="rgb(51,102,153)" d="M 150,361 L 150,225 L 1520,225" stroke-opacity="1" stroke-width="1" stroke-linecap="butt" stroke-linejoin="miter" stroke-miterlimit="1.45"/><use transform="matrix(-1 0 0 -1 1520 225)" xlink:href="#ygc72_2"/><use transform="matrix(0 -1 1 0 150 361)" xlink:href="#ygc72_3"/></g><g><path fill="none" stroke="rgb(51,102,153)" d="M 150,439 L 150,800 L 395,800" stroke-opacity="1" stroke-width="1" stroke-linecap="butt" stroke-linejoin="miter" stroke-miterlimit="1.45"/><use transform="matrix(-1 0 0 -1 395 800)" xlink:href="#ygc72_4"/><use transform="matrix(0 1 -1 0 150 439)" xlink:href="#ygc72_5"/></g><g><path fill="none" stroke="rgb(51,102,153)" d="M 395,775 L 350,775 L 350,425 L 395,425" stroke-opacity="1" stroke-width="1" stroke-linecap="butt" stroke-linejoin="miter" stroke-miterlimit="1.45"/><use transform="matrix(-1 0 0 -1 395 425)" xlink:href="#ygc72_6"/><use transform="matrix(-1 0 0 -1 395 775)" xlink:href="#ygc72_7"/></g><g><path fill="none" stroke="rgb(51,102,153)" d="M 550,754 L 550,628" stroke-opacity="1" stroke-width="1" stroke-linecap="butt" stroke-linejoin="miter" stroke-miterlimit="1.45"/><use transform="matrix(0 1 -1 0 550 628)" xlink:href="#ygc72_8"/><use transform="matrix(0 -1 1 0 550 754)" xlink:href="#ygc72_9"/></g><g><path fill="none" stroke="rgb(51,102,153)" d="M 1145,800 L 705,800" stroke-opacity="1" stroke-width="1" stroke-linecap="butt" stroke-linejoin="miter" stroke-miterlimit="1.45"/><use transform="matrix(1 0 0 1 705 800)" xlink:href="#ygc72_10"/><use transform="matrix(-1 0 0 -1 1145 800)" xlink:href="#ygc72_11"/></g><g><path fill="none" stroke="rgb(51,102,153)" d="M 1455,800 L 1520,800" stroke-opacity="1" stroke-width="1" stroke-linecap="butt" stroke-linejoin="miter" stroke-miterlimit="1.45"/><use transform="matrix(-1 0 0 -1 1520 800)" xlink:href="#ygc72_12"/><use transform="matrix(1 0 0 1 1455 800)" xlink:href="#ygc72_13"/></g><g><path fill="none" stroke="rgb(51,102,153)" d="M 550,846 L 550,950 L 1520,950" stroke-opacity="1" stroke-width="1" stroke-linecap="butt" stroke-linejoin="miter" stroke-miterlimit="1.45"/><use transform="matrix(-1 0 0 -1 1520 950)" xlink:href="#ygc72_14"/><use transform="matrix(0 1 -1 0 550 846)" xlink:href="#ygc72_15"/></g><g><path fill="none" stroke="rgb(51,102,153)" d="M 1675,103 L 1675,172" stroke-opacity="1" stroke-width="1" stroke-linecap="butt" stroke-linejoin="miter" stroke-miterlimit="1.45"/><use transform="matrix(0 -1 1 0 1675 172)" xlink:href="#ygc72_16"/><use transform="matrix(0 1 -1 0 1675 103)" xlink:href="#ygc72_17"/></g><g><path fill="none" stroke="rgb(51,102,153)" d="M 705,575 L 770,575" stroke-opacity="1" stroke-width="1" stroke-linecap="butt" stroke-linejoin="miter" stroke-miterlimit="1.45"/><use transform="matrix(-1 0 0 -1 770 575)" xlink:href="#ygc72_18"/><use transform="matrix(1 0 0 1 705 575)" xlink:href="#ygc72_19"/></g><g><path fill="none" stroke="rgb(51,102,153)" d="M 550,453 L 550,522" stroke-opacity="1" stroke-width="1" stroke-linecap="butt" stroke-linejoin="miter" stroke-miterlimit="1.45"/><use transform="matrix(0 -1 1 0 550 522)" xlink:href="#ygc72_20"/><use transform="matrix(0 1 -1 0 550 453)" xlink:href="#ygc72_21"/></g><g><path fill="none" stroke="rgb(51,102,153)" d="M 925,635 L 925,679" stroke-opacity="1" stroke-width="1" stroke-linecap="butt" stroke-linejoin="miter" stroke-miterlimit="1.45"/><use transform="matrix(0 -1 1 0 925 679)" xlink:href="#ygc72_22"/><use transform="matrix(0 1 -1 0 925 635)" xlink:href="#ygc72_23"/></g><g><path fill="none" stroke="rgb(51,102,153)" d="M 1080,575 L 1145,575" stroke-opacity="1" stroke-width="1" stroke-linecap="butt" stroke-linejoin="miter" stroke-miterlimit="1.45"/><use transform="matrix(-1 0 0 -1 1145 575)" xlink:href="#ygc72_24"/><use transform="matrix(1 0 0 1 1080 575)" xlink:href="#ygc72_25"/></g><g><path fill="none" stroke="rgb(51,102,153)" d="M 1520,250 L 550,250 L 550,347" stroke-opacity="1" stroke-width="1" stroke-linecap="butt" stroke-linejoin="miter" stroke-miterlimit="1.45"/><use transform="matrix(0 -1 1 0 550 347)" xlink:href="#ygc72_26"/><use transform="matrix(-1 0 0 -1 1520 250)" xlink:href="#ygc72_27"/></g><g><path fill="none" stroke="rgb(51,102,153)" d="M 1675,754 L 1675,278" stroke-opacity="1" stroke-width="1" stroke-linecap="butt" stroke-linejoin="miter" stroke-miterlimit="1.45"/><use transform="matrix(0 1 -1 0 1675 278)" xlink:href="#ygc72_28"/><use transform="matrix(0 -1 1 0 1675 754)" xlink:href="#ygc72_29"/></g><g><path fill="none" stroke="rgb(51,102,153)" d="M 1650,754 L 1650,400 L 705,400" stroke-opacity="1" stroke-width="1" stroke-linecap="butt" stroke-linejoin="miter" stroke-miterlimit="1.45"/><use transform="matrix(1 0 0 1 705 400)" xlink:href="#ygc72_30"/><use transform="matrix(0 -1 1 0 1650 754)" xlink:href="#ygc72_31"/></g><g><path fill="none" stroke="rgb(51,102,153)" d="M 1675,846 L 1675,904" stroke-opacity="1" stroke-width="1" stroke-linecap="butt" stroke-linejoin="miter" stroke-miterlimit="1.45"/><use transform="matrix(0 -1 1 0 1675 904)" xlink:href="#ygc72_32"/><use transform="matrix(0 1 -1 0 1675 846)" xlink:href="#ygc72_33"/></g><g><path fill="none" stroke="rgb(51,102,153)" d="M 1830,225 L 1895,225" stroke-opacity="1" stroke-width="1" stroke-linecap="butt" stroke-linejoin="miter" stroke-miterlimit="1.45"/><use transform="matrix(-1 0 0 -1 1895 225)" xlink:href="#ygc72_34"/><use transform="matrix(1 0 0 1 1830 225)" xlink:href="#ygc72_35"/></g><g><path fill="none" stroke="rgb(51,102,153)" d="M 2050,278 L 2050,754" stroke-opacity="1" stroke-width="1" stroke-linecap="butt" stroke-linejoin="miter" stroke-miterlimit="1.45"/><use transform="matrix(0 -1 1 0 2050 754)" xlink:href="#ygc72_36"/><use transform="matrix(0 1 -1 0 2050 278)" xlink:href="#ygc72_37"/></g><g><path fill="none" stroke="rgb(51,102,153)" d="M 1895,800 L 1830,800" stroke-opacity="1" stroke-width="1" stroke-linecap="butt" stroke-linejoin="miter" stroke-miterlimit="1.45"/><use transform="matrix(1 0 0 1 1830 800)" xlink:href="#ygc72_38"/><use transform="matrix(-1 0 0 -1 1895 800)" xlink:href="#ygc72_39"/></g><g><path fill="none" stroke="rgb(51,102,153)" d="M 2050,846 L 2050,897" stroke-opacity="1" stroke-width="1" stroke-linecap="butt" stroke-linejoin="miter" stroke-miterlimit="1.45"/><use transform="matrix(0 -1 1 0 2050 897)" xlink:href="#ygc72_40"/><use transform="matrix(0 1 -1 0 2050 846)" xlink:href="#ygc72_41"/></g><g><path fill="none" stroke="rgb(51,102,153)" d="M 1895,950 L 1830,950" stroke-opacity="1" stroke-width="1" stroke-linecap="butt" stroke-linejoin="miter" stroke-miterlimit="1.45"/><use transform="matrix(1 0 0 1 1830 950)" xlink:href="#ygc72_42"/><use transform="matrix(-1 0 0 -1 1895 950)" xlink:href="#ygc72_43"/></g><g><path fill="none" stroke="rgb(51,102,153)" d="M 2205,225 L 2270,225" stroke-opacity="1" stroke-width="1" stroke-linecap="butt" stroke-linejoin="miter" stroke-miterlimit="1.45"/><use transform="matrix(-1 0 0 -1 2270 225)" xlink:href="#ygc72_44"/><use transform="matrix(1 0 0 1 2205 225)" xlink:href="#ygc72_45"/></g><g><path fill="none" stroke="rgb(51,102,153)" d="M 2425,278 L 2425,754" stroke-opacity="1" stroke-width="1" stroke-linecap="butt" stroke-linejoin="miter" stroke-miterlimit="1.45"/><use transform="matrix(0 -1 1 0 2425 754)" xlink:href="#ygc72_46"/><use transform="matrix(0 1 -1 0 2425 278)" xlink:href="#ygc72_47"/></g><g><path fill="none" stroke="rgb(51,102,153)" d="M 2425,846 L 2425,904" stroke-opacity="1" stroke-width="1" stroke-linecap="butt" stroke-linejoin="miter" stroke-miterlimit="1.45"/><use transform="matrix(0 -1 1 0 2425 904)" xlink:href="#ygc72_48"/><use transform="matrix(0 1 -1 0 2425 846)" xlink:href="#ygc72_49"/></g><g><path fill="none" stroke="rgb(51,102,153)" d="M 2270,800 L 2205,800" stroke-opacity="1" stroke-width="1" stroke-linecap="butt" stroke-linejoin="miter" stroke-miterlimit="1.45"/><use transform="matrix(1 0 0 1 2205 800)" xlink:href="#ygc72_50"/><use transform="matrix(-1 0 0 -1 2270 800)" xlink:href="#ygc72_51"/></g><g><path fill="none" stroke="rgb(51,102,153)" d="M 2270,950 L 2205,950" stroke-opacity="1" stroke-width="1" stroke-linecap="butt" stroke-linejoin="miter" stroke-miterlimit="1.45"/><use transform="matrix(1 0 0 1 2205 950)" xlink:href="#ygc72_52"/><use transform="matrix(-1 0 0 -1 2270 950)" xlink:href="#ygc72_53"/></g><rect fill="rgb(221,238,255)" stroke="rgb(51,102,153)" stroke-opacity="1" stroke-width="1" stroke-linecap="butt" stroke-linejoin="miter" stroke-miterlimit="1.45" fill-opacity="1" x="-5" y="361" width="310" height="78" rx="0" ry="0"/><rect fill="rgb(221,238,255)" stroke="rgb(51,102,153)" stroke-opacity="1" stroke-width="1" stroke-linecap="butt" stroke-linejoin="miter" stroke-miterlimit="1.45" fill-opacity="1" x="395" y="754" width="310" height="92" rx="0" ry="0"/><rect fill="rgb(221,238,255)" stroke="rgb(51,102,153)" stroke-opacity="1" stroke-width="1" stroke-linecap="butt" stroke-linejoin="miter" stroke-miterlimit="1.45" fill-opacity="1" x="1145" y="754" width="310" height="92" rx="0" ry="0"/><rect fill="rgb(221,238,255)" stroke="rgb(51,102,153)" stroke-opacity="1" stroke-width="1" stroke-linecap="butt" stroke-linejoin="miter" stroke-miterlimit="1.45" fill-opacity="1" x="1520" y="-3" width="310" height="106" rx="0" ry="0"/><rect fill="rgb(221,238,255)" stroke="rgb(51,102,153)" stroke-opacity="1" stroke-width="1" stroke-linecap="butt" stroke-linejoin="miter" stroke-miterlimit="1.45" fill-opacity="1" x="1520" y="172" width="310" height="106" rx="0" ry="0"/><rect fill="rgb(221,238,255)" stroke="rgb(51,102,153)" stroke-opacity="1" stroke-width="1" stroke-linecap="butt" stroke-linejoin="miter" stroke-miterlimit="1.45" fill-opacity="1" x="1520" y="754" width="310" height="92" rx="0" ry="0"/><rect fill="rgb(221,238,255)" stroke="rgb(51,102,153)" stroke-opacity="1" stroke-width="1" stroke-linecap="butt" stroke-linejoin="miter" stroke-miterlimit="1.45" fill-opacity="1" x="395" y="347" width="310" height="106" rx="0" ry="0"/><rect fill="rgb(221,238,255)" stroke="rgb(51,102,153)" stroke-opacity="1" stroke-width="1" stroke-linecap="butt" stroke-linejoin="miter" stroke-miterlimit="1.45" fill-opacity="1" x="770" y="515" width="310" height="120" rx="0" ry="0"/><rect fill="rgb(232,245,233)" stroke="rgb(46,125,50)" stroke-opacity="1" stroke-width="1" stroke-linecap="butt" stroke-linejoin="miter" stroke-miterlimit="1.45" fill-opacity="1" x="1145" y="529" width="310" height="92" rx="0" ry="0"/><rect fill="rgb(221,238,255)" stroke="rgb(51,102,153)" stroke-opacity="1" stroke-width="1" stroke-linecap="butt" stroke-linejoin="miter" stroke-miterlimit="1.45" fill-opacity="1" x="770" y="679" width="310" height="92" rx="0" ry="0"/><rect fill="rgb(221,238,255)" stroke="rgb(51,102,153)" stroke-opacity="1" stroke-width="1" stroke-linecap="butt" stroke-linejoin="miter" stroke-miterlimit="1.45" fill-opacity="1" x="395" y="522" width="310" height="106" rx="0" ry="0"/><rect fill="rgb(221,238,255)" stroke="rgb(51,102,153)" stroke-opacity="1" stroke-width="1" stroke-linecap="butt" stroke-linejoin="miter" stroke-miterlimit="1.45" fill-opacity="1" x="1520" y="904" width="310" height="92" rx="0" ry="0"/><rect fill="rgb(221,238,255)" stroke="rgb(51,102,153)" stroke-opacity="1" stroke-width="1" stroke-linecap="butt" stroke-linejoin="miter" stroke-miterlimit="1.45" fill-opacity="1" x="1895" y="172" width="310" height="106" rx="0" ry="0"/><rect fill="rgb(221,238,255)" stroke="rgb(51,102,153)" stroke-opacity="1" stroke-width="1" stroke-linecap="butt" stroke-linejoin="miter" stroke-miterlimit="1.45" fill-opacity="1" x="1895" y="754" width="310" height="92" rx="0" ry="0"/><rect fill="rgb(221,238,255)" stroke="rgb(51,102,153)" stroke-opacity="1" stroke-width="1" stroke-linecap="butt" stroke-linejoin="miter" stroke-miterlimit="1.45" fill-opacity="1" x="1895" y="897" width="310" height="106" rx="0" ry="0"/><rect fill="rgb(221,238,255)" stroke="rgb(51,102,153)" stroke-opacity="1" stroke-width="1" stroke-linecap="butt" stroke-linejoin="miter" stroke-miterlimit="1.45" fill-opacity="1" x="2270" y="172" width="310" height="106" rx="0" ry="0"/><rect fill="rgb(221,238,255)" stroke="rgb(51,102,153)" stroke-opacity="1" stroke-width="1" stroke-linecap="butt" stroke-linejoin="miter" stroke-miterlimit="1.45" fill-opacity="1" x="2270" y="754" width="310" height="92" rx="0" ry="0"/><rect fill="rgb(221,238,255)" stroke="rgb(51,102,153)" stroke-opacity="1" stroke-width="1" stroke-linecap="butt" stroke-linejoin="miter" stroke-miterlimit="1.45" fill-opacity="1" x="2270" y="904" width="310" height="92" rx="0" ry="0"/><g transform="translate(335.5439453125 402.62548828125)"><text font-family="Arial" font-size="10px" font-style="normal" font-weight="normal" text-decoration="none" text-anchor="middle" fill="rgb(0,0,0)" fill-opacity="1" dy="0.9em" xml:space="preserve" transform="translate(14.5 2)">feeds</text></g><g transform="translate(807.4375000000001 227.65869140625)"><text font-family="Arial" font-size="10px" font-style="normal" font-weight="normal" text-decoration="none" text-anchor="middle" fill="rgb(0,0,0)" fill-opacity="1" dy="0.9em" xml:space="preserve" transform="translate(23 2)">produces</text></g><g transform="translate(151.56152343749994 616.5625)"><text font-family="Arial" font-size="10px" font-style="normal" font-weight="normal" text-decoration="none" text-anchor="middle" fill="rgb(0,0,0)" fill-opacity="1" dy="0.9em" xml:space="preserve" transform="translate(10.5 2)">has</text></g><g transform="translate(351.3271484375 592.5)"><text font-family="Arial" font-size="10px" font-style="normal" font-weight="normal" text-decoration="none" text-anchor="middle" fill="rgb(0,0,0)" fill-opacity="1" dy="0.9em" xml:space="preserve" transform="translate(30.5 2)">derives-from</text></g><g transform="translate(551.18701171875 683.53076171875)"><text font-family="Arial" font-size="10px" font-style="normal" font-weight="normal" text-decoration="none" text-anchor="middle" fill="rgb(0,0,0)" fill-opacity="1" dy="0.9em" xml:space="preserve" transform="translate(29.5 2)">grounded-in</text></g><g transform="translate(894.52685546875 802.62548828125)"><text font-family="Arial" font-size="10px" font-style="normal" font-weight="normal" text-decoration="none" text-anchor="middle" fill="rgb(0,0,0)" fill-opacity="1" dy="0.9em" xml:space="preserve" transform="translate(30.5 2)">derives-from</text></g><g transform="translate(1464.5 802.62548828125)"><text font-family="Arial" font-size="10px" font-style="normal" font-weight="normal" text-decoration="none" text-anchor="middle" fill="rgb(0,0,0)" fill-opacity="1" dy="0.9em" xml:space="preserve" transform="translate(23 2)">produces</text></g><g transform="translate(1007.4375000000002 952.62548828125)"><text font-family="Arial" font-size="10px" font-style="normal" font-weight="normal" text-decoration="none" text-anchor="middle" fill="rgb(0,0,0)" fill-opacity="1" dy="0.9em" xml:space="preserve" transform="translate(23 2)">produces</text></g><g transform="translate(1676.34228515625 130)"><text font-family="Arial" font-size="10px" font-style="normal" font-weight="normal" text-decoration="none" text-anchor="middle" fill="rgb(0,0,0)" fill-opacity="1" dy="0.9em" xml:space="preserve" transform="translate(18.5 2)">scopes</text></g><g transform="translate(720.5 577.62548828125)"><text font-family="Arial" font-size="10px" font-style="normal" font-weight="normal" text-decoration="none" text-anchor="middle" fill="rgb(0,0,0)" fill-opacity="1" dy="0.9em" xml:space="preserve" transform="translate(17 2)">part-of</text></g><g transform="translate(551.56396484375 480)"><text font-family="Arial" font-size="10px" font-style="normal" font-weight="normal" text-decoration="none" text-anchor="middle" fill="rgb(0,0,0)" fill-opacity="1" dy="0.9em" xml:space="preserve" transform="translate(30.5 2)">derived-from</text></g><g transform="translate(926.39892578125 649.5)"><text font-family="Arial" font-size="10px" font-style="normal" font-weight="normal" text-decoration="none" text-anchor="middle" fill="rgb(0,0,0)" fill-opacity="1" dy="0.9em" xml:space="preserve" transform="translate(24 2)">issued-by</text></g><g transform="translate(1082.5 577.62548828125)"><text font-family="Arial" font-size="10px" font-style="normal" font-weight="normal" text-decoration="none" text-anchor="middle" fill="rgb(0,0,0)" fill-opacity="1" dy="0.9em" xml:space="preserve" transform="translate(30 2)">classified-as</text></g><g transform="translate(999.967041015625 252.62548828125)"><text font-family="Arial" font-size="10px" font-style="normal" font-weight="normal" text-decoration="none" text-anchor="middle" fill="rgb(0,0,0)" fill-opacity="1" dy="0.9em" xml:space="preserve" transform="translate(30.5 2)">derives-from</text></g><g transform="translate(1676.45068359375 508.529052734375)"><text font-family="Arial" font-size="10px" font-style="normal" font-weight="normal" text-decoration="none" text-anchor="middle" fill="rgb(0,0,0)" fill-opacity="1" dy="0.9em" xml:space="preserve" transform="translate(17 2)">part-of</text></g><g transform="translate(1151.5625000000002 402.66870117187506)"><text font-family="Arial" font-size="10px" font-style="normal" font-weight="normal" text-decoration="none" text-anchor="middle" fill="rgb(0,0,0)" fill-opacity="1" dy="0.9em" xml:space="preserve" transform="translate(30.5 2)">derives-from</text></g><g transform="translate(1676.5615234375 867.5)"><text font-family="Arial" font-size="10px" font-style="normal" font-weight="normal" text-decoration="none" text-anchor="middle" fill="rgb(0,0,0)" fill-opacity="1" dy="0.9em" xml:space="preserve" transform="translate(10.5 2)">has</text></g><g transform="translate(1842 227.62548828125)"><text font-family="Arial" font-size="10px" font-style="normal" font-weight="normal" text-decoration="none" text-anchor="middle" fill="rgb(0,0,0)" fill-opacity="1" dy="0.9em" xml:space="preserve" transform="translate(20.5 2)">leads-to</text></g><g transform="translate(2051.5615234375 508.5)"><text font-family="Arial" font-size="10px" font-style="normal" font-weight="normal" text-decoration="none" text-anchor="middle" fill="rgb(0,0,0)" fill-opacity="1" dy="0.9em" xml:space="preserve" transform="translate(10.5 2)">has</text></g><g transform="translate(1832.03173828125 802.62548828125)"><text font-family="Arial" font-size="10px" font-style="normal" font-weight="normal" text-decoration="none" text-anchor="middle" fill="rgb(0,0,0)" fill-opacity="1" dy="0.9em" xml:space="preserve" transform="translate(30.5 2)">derived-from</text></g><g transform="translate(2051.5615234375 864)"><text font-family="Arial" font-size="10px" font-style="normal" font-weight="normal" text-decoration="none" text-anchor="middle" fill="rgb(0,0,0)" fill-opacity="1" dy="0.9em" xml:space="preserve" transform="translate(10.5 2)">has</text></g><g transform="translate(1832.03173828125 952.62548828125)"><text font-family="Arial" font-size="10px" font-style="normal" font-weight="normal" text-decoration="none" text-anchor="middle" fill="rgb(0,0,0)" fill-opacity="1" dy="0.9em" xml:space="preserve" transform="translate(30.5 2)">derived-from</text></g><g transform="translate(2217 227.62548828125)"><text font-family="Arial" font-size="10px" font-style="normal" font-weight="normal" text-decoration="none" text-anchor="middle" fill="rgb(0,0,0)" fill-opacity="1" dy="0.9em" xml:space="preserve" transform="translate(20.5 2)">leads-to</text></g><g transform="translate(2426.5615234375 508.5)"><text font-family="Arial" font-size="10px" font-style="normal" font-weight="normal" text-decoration="none" text-anchor="middle" fill="rgb(0,0,0)" fill-opacity="1" dy="0.9em" xml:space="preserve" transform="translate(10.5 2)">has</text></g><g transform="translate(2426.5615234375 867.5)"><text font-family="Arial" font-size="10px" font-style="normal" font-weight="normal" text-decoration="none" text-anchor="middle" fill="rgb(0,0,0)" fill-opacity="1" dy="0.9em" xml:space="preserve" transform="translate(10.5 2)">has</text></g><g transform="translate(2207.03173828125 802.62548828125)"><text font-family="Arial" font-size="10px" font-style="normal" font-weight="normal" text-decoration="none" text-anchor="middle" fill="rgb(0,0,0)" fill-opacity="1" dy="0.9em" xml:space="preserve" transform="translate(30.5 2)">derived-from</text></g><g transform="translate(2207.03173828125 952.62548828125)"><text font-family="Arial" font-size="10px" font-style="normal" font-weight="normal" text-decoration="none" text-anchor="middle" fill="rgb(0,0,0)" fill-opacity="1" dy="0.9em" xml:space="preserve" transform="translate(30.5 2)">derived-from</text></g><g transform="translate(26.5 367)"><text font-family="'Courier New'" font-size="11px" font-style="normal" font-weight="normal" text-decoration="none" text-anchor="start" fill="rgb(0,0,0)" fill-opacity="1" transform="translate(2 2)"><tspan dy="0.8181818181818182em" x="0" xml:space="preserve">NIAM_ANALYSIS</tspan><tspan dy="1.5em" x="0" xml:space="preserve">────────────────────────────────────</tspan><tspan dy="1.5em" x="0" xml:space="preserve">niam_analysis_id: int  [PK]</tspan><tspan dy="1.5em" x="0" xml:space="preserve">status: string</tspan></text></g><g transform="translate(426.5 759)"><text font-family="'Courier New'" font-size="11px" font-style="normal" font-weight="normal" text-decoration="none" text-anchor="start" fill="rgb(0,0,0)" fill-opacity="1" transform="translate(2 2)"><tspan dy="0.8181818181818182em" x="0" xml:space="preserve">NIAM_FACT</tspan><tspan dy="1.5em" x="0" xml:space="preserve">────────────────────────────────────</tspan><tspan dy="1.5em" x="0" xml:space="preserve">niam_fact_id: int  [PK]</tspan><tspan dy="1.5em" x="0" xml:space="preserve">name: string</tspan><tspan dy="1.5em" x="0" xml:space="preserve">verbalisation: text</tspan></text></g><g transform="translate(1176.5 759)"><text font-family="'Courier New'" font-size="11px" font-style="normal" font-weight="normal" text-decoration="none" text-anchor="start" fill="rgb(0,0,0)" fill-opacity="1" transform="translate(2 2)"><tspan dy="0.8181818181818182em" x="0" xml:space="preserve">NIAM_OBJECT</tspan><tspan dy="1.5em" x="0" xml:space="preserve">────────────────────────────────────</tspan><tspan dy="1.5em" x="0" xml:space="preserve">niam_object_id: int  [PK]</tspan><tspan dy="1.5em" x="0" xml:space="preserve">name: string</tspan><tspan dy="1.5em" x="0" xml:space="preserve">definition: text</tspan></text></g><g transform="translate(1551.5 0.5)"><text font-family="'Courier New'" font-size="11px" font-style="normal" font-weight="normal" text-decoration="none" text-anchor="start" fill="rgb(0,0,0)" fill-opacity="1" transform="translate(2 2)"><tspan dy="0.8181818181818182em" x="0" xml:space="preserve">MODELLING_CONTEXT</tspan><tspan dy="1.5em" x="0" xml:space="preserve">────────────────────────────────────</tspan><tspan dy="1.5em" x="0" xml:space="preserve">modelling_context_id: int  [PK]</tspan><tspan dy="1.5em" x="0" xml:space="preserve">domain: string</tspan><tspan dy="1.5em" x="0" xml:space="preserve">purpose: string</tspan><tspan dy="1.5em" x="0" xml:space="preserve">scope_boundary: string</tspan></text></g><g transform="translate(1551.5 175.5)"><text font-family="'Courier New'" font-size="11px" font-style="normal" font-weight="normal" text-decoration="none" text-anchor="start" fill="rgb(0,0,0)" fill-opacity="1" transform="translate(2 2)"><tspan dy="0.8181818181818182em" x="0" xml:space="preserve">INFORMATION_MODEL</tspan><tspan dy="1.5em" x="0" xml:space="preserve">────────────────────────────────────</tspan><tspan dy="1.5em" x="0" xml:space="preserve">information_model_id: int  [PK]</tspan><tspan dy="1.5em" x="0" xml:space="preserve">name: string</tspan><tspan dy="1.5em" x="0" xml:space="preserve">version: string</tspan><tspan dy="1.5em" x="0" xml:space="preserve">status: string</tspan></text></g><g transform="translate(1541.5 759)"><text font-family="'Courier New'" font-size="11px" font-style="normal" font-weight="normal" text-decoration="none" text-anchor="start" fill="rgb(0,0,0)" fill-opacity="1" transform="translate(2 2)"><tspan dy="0.8181818181818182em" x="0" xml:space="preserve">INFORMATION_MODEL_ELEMENT</tspan><tspan dy="1.5em" x="0" xml:space="preserve">────────────────────────────────────</tspan><tspan dy="1.5em" x="0" xml:space="preserve">information_model_element_id: int  [PK]</tspan><tspan dy="1.5em" x="0" xml:space="preserve">name: string</tspan><tspan dy="1.5em" x="0" xml:space="preserve">definition: text</tspan></text></g><g transform="translate(426.5 350.5)"><text font-family="'Courier New'" font-size="11px" font-style="normal" font-weight="normal" text-decoration="none" text-anchor="start" fill="rgb(0,0,0)" fill-opacity="1" transform="translate(2 2)"><tspan dy="0.8181818181818182em" x="0" xml:space="preserve">REQUIREMENT</tspan><tspan dy="1.5em" x="0" xml:space="preserve">────────────────────────────────────</tspan><tspan dy="1.5em" x="0" xml:space="preserve">requirement_id: int  [PK]</tspan><tspan dy="1.5em" x="0" xml:space="preserve">type: string</tspan><tspan dy="1.5em" x="0" xml:space="preserve">text: text</tspan><tspan dy="1.5em" x="0" xml:space="preserve">condition: string</tspan></text></g><g transform="translate(801.5 517.5)"><text font-family="'Courier New'" font-size="11px" font-style="normal" font-weight="normal" text-decoration="none" text-anchor="start" fill="rgb(0,0,0)" fill-opacity="1" transform="translate(2 2)"><tspan dy="0.8181818181818182em" x="0" xml:space="preserve">SOURCE</tspan><tspan dy="1.5em" x="0" xml:space="preserve">────────────────────────────────────</tspan><tspan dy="1.5em" x="0" xml:space="preserve">source_id: int  [PK]</tspan><tspan dy="1.5em" x="0" xml:space="preserve">title: string</tspan><tspan dy="1.5em" x="0" xml:space="preserve">citation: string</tspan><tspan dy="1.5em" x="0" xml:space="preserve">effective_date: date</tspan><tspan dy="1.5em" x="0" xml:space="preserve">jurisdiction: string</tspan></text></g><g transform="translate(1176.5 534)"><text font-family="'Courier New'" font-size="11px" font-style="normal" font-weight="normal" text-decoration="none" text-anchor="start" fill="rgb(0,0,0)" fill-opacity="1" transform="translate(2 2)"><tspan dy="0.8181818181818182em" x="0" xml:space="preserve">SOURCE_TYPE_REF</tspan><tspan dy="1.5em" x="0" xml:space="preserve">────────────────────────────────────</tspan><tspan dy="1.5em" x="0" xml:space="preserve">source_type_ref_id: int  [PK]</tspan><tspan dy="1.5em" x="0" xml:space="preserve">code: string  [UK]</tspan><tspan dy="1.5em" x="0" xml:space="preserve">description: string</tspan></text></g><g transform="translate(801.5 684)"><text font-family="'Courier New'" font-size="11px" font-style="normal" font-weight="normal" text-decoration="none" text-anchor="start" fill="rgb(0,0,0)" fill-opacity="1" transform="translate(2 2)"><tspan dy="0.8181818181818182em" x="0" xml:space="preserve">ISSUING_AUTHORITY</tspan><tspan dy="1.5em" x="0" xml:space="preserve">────────────────────────────────────</tspan><tspan dy="1.5em" x="0" xml:space="preserve">issuing_authority_id: int  [PK]</tspan><tspan dy="1.5em" x="0" xml:space="preserve">name: string</tspan><tspan dy="1.5em" x="0" xml:space="preserve">authority_type: string</tspan></text></g><g transform="translate(426.5 525.5)"><text font-family="'Courier New'" font-size="11px" font-style="normal" font-weight="normal" text-decoration="none" text-anchor="start" fill="rgb(0,0,0)" fill-opacity="1" transform="translate(2 2)"><tspan dy="0.8181818181818182em" x="0" xml:space="preserve">SOURCE_SECTION</tspan><tspan dy="1.5em" x="0" xml:space="preserve">────────────────────────────────────</tspan><tspan dy="1.5em" x="0" xml:space="preserve">source_section_id: int  [PK]</tspan><tspan dy="1.5em" x="0" xml:space="preserve">identifier: string</tspan><tspan dy="1.5em" x="0" xml:space="preserve">text: text</tspan><tspan dy="1.5em" x="0" xml:space="preserve">type: string</tspan></text></g><g transform="translate(1551.5 909)"><text font-family="'Courier New'" font-size="11px" font-style="normal" font-weight="normal" text-decoration="none" text-anchor="start" fill="rgb(0,0,0)" fill-opacity="1" transform="translate(2 2)"><tspan dy="0.8181818181818182em" x="0" xml:space="preserve">CHARACTERISTIC</tspan><tspan dy="1.5em" x="0" xml:space="preserve">────────────────────────────────────</tspan><tspan dy="1.5em" x="0" xml:space="preserve">characteristic_id: int  [PK]</tspan><tspan dy="1.5em" x="0" xml:space="preserve">name: string</tspan><tspan dy="1.5em" x="0" xml:space="preserve">definition: text</tspan></text></g><g transform="translate(1926.5 175.5)"><text font-family="'Courier New'" font-size="11px" font-style="normal" font-weight="normal" text-decoration="none" text-anchor="start" fill="rgb(0,0,0)" fill-opacity="1" transform="translate(2 2)"><tspan dy="0.8181818181818182em" x="0" xml:space="preserve">LOGICAL_DATA_MODEL</tspan><tspan dy="1.5em" x="0" xml:space="preserve">────────────────────────────────────</tspan><tspan dy="1.5em" x="0" xml:space="preserve">logical_data_model_id: int  [PK]</tspan><tspan dy="1.5em" x="0" xml:space="preserve">name: string</tspan><tspan dy="1.5em" x="0" xml:space="preserve">version: string</tspan><tspan dy="1.5em" x="0" xml:space="preserve">status: string</tspan></text></g><g transform="translate(1926.5 759)"><text font-family="'Courier New'" font-size="11px" font-style="normal" font-weight="normal" text-decoration="none" text-anchor="start" fill="rgb(0,0,0)" fill-opacity="1" transform="translate(2 2)"><tspan dy="0.8181818181818182em" x="0" xml:space="preserve">ENTITY</tspan><tspan dy="1.5em" x="0" xml:space="preserve">────────────────────────────────────</tspan><tspan dy="1.5em" x="0" xml:space="preserve">entity_id: int  [PK]</tspan><tspan dy="1.5em" x="0" xml:space="preserve">name: string</tspan><tspan dy="1.5em" x="0" xml:space="preserve">definition: text</tspan></text></g><g transform="translate(1926.5 900.5)"><text font-family="'Courier New'" font-size="11px" font-style="normal" font-weight="normal" text-decoration="none" text-anchor="start" fill="rgb(0,0,0)" fill-opacity="1" transform="translate(2 2)"><tspan dy="0.8181818181818182em" x="0" xml:space="preserve">ATTRIBUTE</tspan><tspan dy="1.5em" x="0" xml:space="preserve">────────────────────────────────────</tspan><tspan dy="1.5em" x="0" xml:space="preserve">attribute_id: int  [PK]</tspan><tspan dy="1.5em" x="0" xml:space="preserve">name: string</tspan><tspan dy="1.5em" x="0" xml:space="preserve">definition: text</tspan><tspan dy="1.5em" x="0" xml:space="preserve">attribute_type: string</tspan></text></g><g transform="translate(2301.5 175.5)"><text font-family="'Courier New'" font-size="11px" font-style="normal" font-weight="normal" text-decoration="none" text-anchor="start" fill="rgb(0,0,0)" fill-opacity="1" transform="translate(2 2)"><tspan dy="0.8181818181818182em" x="0" xml:space="preserve">TECHNICAL_DATA_MODEL</tspan><tspan dy="1.5em" x="0" xml:space="preserve">────────────────────────────────────</tspan><tspan dy="1.5em" x="0" xml:space="preserve">technical_data_model_id: int  [PK]</tspan><tspan dy="1.5em" x="0" xml:space="preserve">name: string</tspan><tspan dy="1.5em" x="0" xml:space="preserve">version: string</tspan><tspan dy="1.5em" x="0" xml:space="preserve">status: string</tspan></text></g><g transform="translate(2301.5 759)"><text font-family="'Courier New'" font-size="11px" font-style="normal" font-weight="normal" text-decoration="none" text-anchor="start" fill="rgb(0,0,0)" fill-opacity="1" transform="translate(2 2)"><tspan dy="0.8181818181818182em" x="0" xml:space="preserve">TABLE</tspan><tspan dy="1.5em" x="0" xml:space="preserve">────────────────────────────────────</tspan><tspan dy="1.5em" x="0" xml:space="preserve">table_id: int  [PK]</tspan><tspan dy="1.5em" x="0" xml:space="preserve">name: string</tspan><tspan dy="1.5em" x="0" xml:space="preserve">definition: text</tspan></text></g><g transform="translate(2301.5 909)"><text font-family="'Courier New'" font-size="11px" font-style="normal" font-weight="normal" text-decoration="none" text-anchor="start" fill="rgb(0,0,0)" fill-opacity="1" transform="translate(2 2)"><tspan dy="0.8181818181818182em" x="0" xml:space="preserve">COLUMN</tspan><tspan dy="1.5em" x="0" xml:space="preserve">────────────────────────────────────</tspan><tspan dy="1.5em" x="0" xml:space="preserve">column_id: int  [PK]</tspan><tspan dy="1.5em" x="0" xml:space="preserve">name: string</tspan><tspan dy="1.5em" x="0" xml:space="preserve">definition: text</tspan></text></g></g></g></g><defs><path d="M 10,0 L -2,8 M 10,0 L -2,0 M 10,0 L -2,-8" stroke="rgb(51,102,153)" stroke-opacity="1" stroke-width="1" stroke-linecap="butt" stroke-linejoin="miter" stroke-miterlimit="10" id="ygc72_0"/><g id="ygc72_1"><circle fill="#fff" stroke="rgb(51,102,153)" stroke-opacity="1" stroke-width="1" stroke-linecap="butt" stroke-linejoin="miter" stroke-miterlimit="10" cx="15" cy="0" r="5"/><path d="M 10,0 L -2,8 M 10,0 L -2,0 M 10,0 L -2,-8" stroke="rgb(51,102,153)" stroke-opacity="1" stroke-width="1" stroke-linecap="butt" stroke-linejoin="miter" stroke-miterlimit="10"/></g><path d="M 10,-8 L 10,8 Z" stroke="rgb(51,102,153)" stroke-opacity="1" stroke-width="1" stroke-linecap="butt" stroke-linejoin="miter" stroke-miterlimit="10" id="ygc72_2"/><path d="M 10,-8 L 10,8 Z" stroke="rgb(51,102,153)" stroke-opacity="1" stroke-width="1" stroke-linecap="butt" stroke-linejoin="miter" stroke-miterlimit="10" id="ygc72_3"/><path d="M 10,0 L -2,8 M 10,0 L -2,0 M 10,0 L -2,-8" stroke="rgb(51,102,153)" stroke-opacity="1" stroke-width="1" stroke-linecap="butt" stroke-linejoin="miter" stroke-miterlimit="10" id="ygc72_4"/><path d="M 10,-8 L 10,8 Z" stroke="rgb(51,102,153)" stroke-opacity="1" stroke-width="1" stroke-linecap="butt" stroke-linejoin="miter" stroke-miterlimit="10" id="ygc72_5"/><path d="M 10,-8 L 10,8 Z" stroke="rgb(51,102,153)" stroke-opacity="1" stroke-width="1" stroke-linecap="butt" stroke-linejoin="miter" stroke-miterlimit="10" id="ygc72_6"/><g id="ygc72_7"><circle fill="#fff" stroke="rgb(51,102,153)" stroke-opacity="1" stroke-width="1" stroke-linecap="butt" stroke-linejoin="miter" stroke-miterlimit="10" cx="15" cy="0" r="5"/><path d="M 10,0 L -2,8 M 10,0 L -2,0 M 10,0 L -2,-8" stroke="rgb(51,102,153)" stroke-opacity="1" stroke-width="1" stroke-linecap="butt" stroke-linejoin="miter" stroke-miterlimit="10"/></g><path d="M 10,-8 L 10,8 Z" stroke="rgb(51,102,153)" stroke-opacity="1" stroke-width="1" stroke-linecap="butt" stroke-linejoin="miter" stroke-miterlimit="10" id="ygc72_8"/><g id="ygc72_9"><circle fill="#fff" stroke="rgb(51,102,153)" stroke-opacity="1" stroke-width="1" stroke-linecap="butt" stroke-linejoin="miter" stroke-miterlimit="10" cx="15" cy="0" r="5"/><path d="M 10,0 L -2,8 M 10,0 L -2,0 M 10,0 L -2,-8" stroke="rgb(51,102,153)" stroke-opacity="1" stroke-width="1" stroke-linecap="butt" stroke-linejoin="miter" stroke-miterlimit="10"/></g><path d="M 10,-8 L 10,8 Z" stroke="rgb(51,102,153)" stroke-opacity="1" stroke-width="1" stroke-linecap="butt" stroke-linejoin="miter" stroke-miterlimit="10" id="ygc72_10"/><g id="ygc72_11"><circle fill="#fff" stroke="rgb(51,102,153)" stroke-opacity="1" stroke-width="1" stroke-linecap="butt" stroke-linejoin="miter" stroke-miterlimit="10" cx="15" cy="0" r="5"/><path d="M 10,0 L -2,8 M 10,0 L -2,0 M 10,0 L -2,-8" stroke="rgb(51,102,153)" stroke-opacity="1" stroke-width="1" stroke-linecap="butt" stroke-linejoin="miter" stroke-miterlimit="10"/></g><g id="ygc72_12"><circle fill="#fff" stroke="rgb(51,102,153)" stroke-opacity="1" stroke-width="1" stroke-linecap="butt" stroke-linejoin="miter" stroke-miterlimit="10" cx="15" cy="0" r="5"/><path d="M 6,-8 L 6,8" stroke="rgb(51,102,153)" stroke-opacity="1" stroke-width="1" stroke-linecap="butt" stroke-linejoin="miter" stroke-miterlimit="10"/></g><g id="ygc72_13"><circle fill="#fff" stroke="rgb(51,102,153)" stroke-opacity="1" stroke-width="1" stroke-linecap="butt" stroke-linejoin="miter" stroke-miterlimit="10" cx="15" cy="0" r="5"/><path d="M 10,0 L -2,8 M 10,0 L -2,0 M 10,0 L -2,-8" stroke="rgb(51,102,153)" stroke-opacity="1" stroke-width="1" stroke-linecap="butt" stroke-linejoin="miter" stroke-miterlimit="10"/></g><g id="ygc72_14"><circle fill="#fff" stroke="rgb(51,102,153)" stroke-opacity="1" stroke-width="1" stroke-linecap="butt" stroke-linejoin="miter" stroke-miterlimit="10" cx="15" cy="0" r="5"/><path d="M 6,-8 L 6,8" stroke="rgb(51,102,153)" stroke-opacity="1" stroke-width="1" stroke-linecap="butt" stroke-linejoin="miter" stroke-miterlimit="10"/></g><g id="ygc72_15"><circle fill="#fff" stroke="rgb(51,102,153)" stroke-opacity="1" stroke-width="1" stroke-linecap="butt" stroke-linejoin="miter" stroke-miterlimit="10" cx="15" cy="0" r="5"/><path d="M 10,0 L -2,8 M 10,0 L -2,0 M 10,0 L -2,-8" stroke="rgb(51,102,153)" stroke-opacity="1" stroke-width="1" stroke-linecap="butt" stroke-linejoin="miter" stroke-miterlimit="10"/></g><path d="M 10,-8 L 10,8 Z" stroke="rgb(51,102,153)" stroke-opacity="1" stroke-width="1" stroke-linecap="butt" stroke-linejoin="miter" stroke-miterlimit="10" id="ygc72_16"/><path d="M 10,-8 L 10,8 Z" stroke="rgb(51,102,153)" stroke-opacity="1" stroke-width="1" stroke-linecap="butt" stroke-linejoin="miter" stroke-miterlimit="10" id="ygc72_17"/><path d="M 10,-8 L 10,8 Z" stroke="rgb(51,102,153)" stroke-opacity="1" stroke-width="1" stroke-linecap="butt" stroke-linejoin="miter" stroke-miterlimit="10" id="ygc72_18"/><g id="ygc72_19"><circle fill="#fff" stroke="rgb(51,102,153)" stroke-opacity="1" stroke-width="1" stroke-linecap="butt" stroke-linejoin="miter" stroke-miterlimit="10" cx="15" cy="0" r="5"/><path d="M 10,0 L -2,8 M 10,0 L -2,0 M 10,0 L -2,-8" stroke="rgb(51,102,153)" stroke-opacity="1" stroke-width="1" stroke-linecap="butt" stroke-linejoin="miter" stroke-miterlimit="10"/></g><path d="M 10,-8 L 10,8 Z" stroke="rgb(51,102,153)" stroke-opacity="1" stroke-width="1" stroke-linecap="butt" stroke-linejoin="miter" stroke-miterlimit="10" id="ygc72_20"/><g id="ygc72_21"><circle fill="#fff" stroke="rgb(51,102,153)" stroke-opacity="1" stroke-width="1" stroke-linecap="butt" stroke-linejoin="miter" stroke-miterlimit="10" cx="15" cy="0" r="5"/><path d="M 10,0 L -2,8 M 10,0 L -2,0 M 10,0 L -2,-8" stroke="rgb(51,102,153)" stroke-opacity="1" stroke-width="1" stroke-linecap="butt" stroke-linejoin="miter" stroke-miterlimit="10"/></g><path d="M 10,-8 L 10,8 Z" stroke="rgb(51,102,153)" stroke-opacity="1" stroke-width="1" stroke-linecap="butt" stroke-linejoin="miter" stroke-miterlimit="10" id="ygc72_22"/><g id="ygc72_23"><circle fill="#fff" stroke="rgb(51,102,153)" stroke-opacity="1" stroke-width="1" stroke-linecap="butt" stroke-linejoin="miter" stroke-miterlimit="10" cx="15" cy="0" r="5"/><path d="M 10,0 L -2,8 M 10,0 L -2,0 M 10,0 L -2,-8" stroke="rgb(51,102,153)" stroke-opacity="1" stroke-width="1" stroke-linecap="butt" stroke-linejoin="miter" stroke-miterlimit="10"/></g><path d="M 10,-8 L 10,8 Z" stroke="rgb(51,102,153)" stroke-opacity="1" stroke-width="1" stroke-linecap="butt" stroke-linejoin="miter" stroke-miterlimit="10" id="ygc72_24"/><g id="ygc72_25"><circle fill="#fff" stroke="rgb(51,102,153)" stroke-opacity="1" stroke-width="1" stroke-linecap="butt" stroke-linejoin="miter" stroke-miterlimit="10" cx="15" cy="0" r="5"/><path d="M 10,0 L -2,8 M 10,0 L -2,0 M 10,0 L -2,-8" stroke="rgb(51,102,153)" stroke-opacity="1" stroke-width="1" stroke-linecap="butt" stroke-linejoin="miter" stroke-miterlimit="10"/></g><path d="M 10,0 L -2,8 M 10,0 L -2,0 M 10,0 L -2,-8" stroke="rgb(51,102,153)" stroke-opacity="1" stroke-width="1" stroke-linecap="butt" stroke-linejoin="miter" stroke-miterlimit="10" id="ygc72_26"/><g id="ygc72_27"><circle fill="#fff" stroke="rgb(51,102,153)" stroke-opacity="1" stroke-width="1" stroke-linecap="butt" stroke-linejoin="miter" stroke-miterlimit="10" cx="15" cy="0" r="5"/><path d="M 10,0 L -2,8 M 10,0 L -2,0 M 10,0 L -2,-8" stroke="rgb(51,102,153)" stroke-opacity="1" stroke-width="1" stroke-linecap="butt" stroke-linejoin="miter" stroke-miterlimit="10"/></g><path d="M 10,-8 L 10,8 Z" stroke="rgb(51,102,153)" stroke-opacity="1" stroke-width="1" stroke-linecap="butt" stroke-linejoin="miter" stroke-miterlimit="10" id="ygc72_28"/><g id="ygc72_29"><circle fill="#fff" stroke="rgb(51,102,153)" stroke-opacity="1" stroke-width="1" stroke-linecap="butt" stroke-linejoin="miter" stroke-miterlimit="10" cx="15" cy="0" r="5"/><path d="M 10,0 L -2,8 M 10,0 L -2,0 M 10,0 L -2,-8" stroke="rgb(51,102,153)" stroke-opacity="1" stroke-width="1" stroke-linecap="butt" stroke-linejoin="miter" stroke-miterlimit="10"/></g><path d="M 10,0 L -2,8 M 10,0 L -2,0 M 10,0 L -2,-8" stroke="rgb(51,102,153)" stroke-opacity="1" stroke-width="1" stroke-linecap="butt" stroke-linejoin="miter" stroke-miterlimit="10" id="ygc72_30"/><g id="ygc72_31"><circle fill="#fff" stroke="rgb(51,102,153)" stroke-opacity="1" stroke-width="1" stroke-linecap="butt" stroke-linejoin="miter" stroke-miterlimit="10" cx="15" cy="0" r="5"/><path d="M 10,0 L -2,8 M 10,0 L -2,0 M 10,0 L -2,-8" stroke="rgb(51,102,153)" stroke-opacity="1" stroke-width="1" stroke-linecap="butt" stroke-linejoin="miter" stroke-miterlimit="10"/></g><path d="M 10,0 L -2,8 M 10,0 L -2,0 M 10,0 L -2,-8" stroke="rgb(51,102,153)" stroke-opacity="1" stroke-width="1" stroke-linecap="butt" stroke-linejoin="miter" stroke-miterlimit="10" id="ygc72_32"/><path d="M 10,-8 L 10,8 Z" stroke="rgb(51,102,153)" stroke-opacity="1" stroke-width="1" stroke-linecap="butt" stroke-linejoin="miter" stroke-miterlimit="10" id="ygc72_33"/><path d="M 10,0 L -2,8 M 10,0 L -2,0 M 10,0 L -2,-8" stroke="rgb(51,102,153)" stroke-opacity="1" stroke-width="1" stroke-linecap="butt" stroke-linejoin="miter" stroke-miterlimit="10" id="ygc72_34"/><path d="M 10,-8 L 10,8 Z" stroke="rgb(51,102,153)" stroke-opacity="1" stroke-width="1" stroke-linecap="butt" stroke-linejoin="miter" stroke-miterlimit="10" id="ygc72_35"/><path d="M 10,0 L -2,8 M 10,0 L -2,0 M 10,0 L -2,-8" stroke="rgb(51,102,153)" stroke-opacity="1" stroke-width="1" stroke-linecap="butt" stroke-linejoin="miter" stroke-miterlimit="10" id="ygc72_36"/><path d="M 10,-8 L 10,8 Z" stroke="rgb(51,102,153)" stroke-opacity="1" stroke-width="1" stroke-linecap="butt" stroke-linejoin="miter" stroke-miterlimit="10" id="ygc72_37"/><path d="M 10,-8 L 10,8 Z" stroke="rgb(51,102,153)" stroke-opacity="1" stroke-width="1" stroke-linecap="butt" stroke-linejoin="miter" stroke-miterlimit="10" id="ygc72_38"/><g id="ygc72_39"><circle fill="#fff" stroke="rgb(51,102,153)" stroke-opacity="1" stroke-width="1" stroke-linecap="butt" stroke-linejoin="miter" stroke-miterlimit="10" cx="15" cy="0" r="5"/><path d="M 10,0 L -2,8 M 10,0 L -2,0 M 10,0 L -2,-8" stroke="rgb(51,102,153)" stroke-opacity="1" stroke-width="1" stroke-linecap="butt" stroke-linejoin="miter" stroke-miterlimit="10"/></g><path d="M 10,0 L -2,8 M 10,0 L -2,0 M 10,0 L -2,-8" stroke="rgb(51,102,153)" stroke-opacity="1" stroke-width="1" stroke-linecap="butt" stroke-linejoin="miter" stroke-miterlimit="10" id="ygc72_40"/><path d="M 10,-8 L 10,8 Z" stroke="rgb(51,102,153)" stroke-opacity="1" stroke-width="1" stroke-linecap="butt" stroke-linejoin="miter" stroke-miterlimit="10" id="ygc72_41"/><g id="ygc72_42"><circle fill="#fff" stroke="rgb(51,102,153)" stroke-opacity="1" stroke-width="1" stroke-linecap="butt" stroke-linejoin="miter" stroke-miterlimit="10" cx="15" cy="0" r="5"/><path d="M 6,-8 L 6,8" stroke="rgb(51,102,153)" stroke-opacity="1" stroke-width="1" stroke-linecap="butt" stroke-linejoin="miter" stroke-miterlimit="10"/></g><g id="ygc72_43"><circle fill="#fff" stroke="rgb(51,102,153)" stroke-opacity="1" stroke-width="1" stroke-linecap="butt" stroke-linejoin="miter" stroke-miterlimit="10" cx="15" cy="0" r="5"/><path d="M 10,0 L -2,8 M 10,0 L -2,0 M 10,0 L -2,-8" stroke="rgb(51,102,153)" stroke-opacity="1" stroke-width="1" stroke-linecap="butt" stroke-linejoin="miter" stroke-miterlimit="10"/></g><path d="M 10,-8 L 10,8 Z" stroke="rgb(51,102,153)" stroke-opacity="1" stroke-width="1" stroke-linecap="butt" stroke-linejoin="miter" stroke-miterlimit="10" id="ygc72_44"/><path d="M 10,-8 L 10,8 Z" stroke="rgb(51,102,153)" stroke-opacity="1" stroke-width="1" stroke-linecap="butt" stroke-linejoin="miter" stroke-miterlimit="10" id="ygc72_45"/><path d="M 10,0 L -2,8 M 10,0 L -2,0 M 10,0 L -2,-8" stroke="rgb(51,102,153)" stroke-opacity="1" stroke-width="1" stroke-linecap="butt" stroke-linejoin="miter" stroke-miterlimit="10" id="ygc72_46"/><path d="M 10,-8 L 10,8 Z" stroke="rgb(51,102,153)" stroke-opacity="1" stroke-width="1" stroke-linecap="butt" stroke-linejoin="miter" stroke-miterlimit="10" id="ygc72_47"/><path d="M 10,0 L -2,8 M 10,0 L -2,0 M 10,0 L -2,-8" stroke="rgb(51,102,153)" stroke-opacity="1" stroke-width="1" stroke-linecap="butt" stroke-linejoin="miter" stroke-miterlimit="10" id="ygc72_48"/><path d="M 10,-8 L 10,8 Z" stroke="rgb(51,102,153)" stroke-opacity="1" stroke-width="1" stroke-linecap="butt" stroke-linejoin="miter" stroke-miterlimit="10" id="ygc72_49"/><path d="M 10,-8 L 10,8 Z" stroke="rgb(51,102,153)" stroke-opacity="1" stroke-width="1" stroke-linecap="butt" stroke-linejoin="miter" stroke-miterlimit="10" id="ygc72_50"/><g id="ygc72_51"><circle fill="#fff" stroke="rgb(51,102,153)" stroke-opacity="1" stroke-width="1" stroke-linecap="butt" stroke-linejoin="miter" stroke-miterlimit="10" cx="15" cy="0" r="5"/><path d="M 10,0 L -2,8 M 10,0 L -2,0 M 10,0 L -2,-8" stroke="rgb(51,102,153)" stroke-opacity="1" stroke-width="1" stroke-linecap="butt" stroke-linejoin="miter" stroke-miterlimit="10"/></g><path d="M 10,-8 L 10,8 Z" stroke="rgb(51,102,153)" stroke-opacity="1" stroke-width="1" stroke-linecap="butt" stroke-linejoin="miter" stroke-miterlimit="10" id="ygc72_52"/><g id="ygc72_53"><circle fill="#fff" stroke="rgb(51,102,153)" stroke-opacity="1" stroke-width="1" stroke-linecap="butt" stroke-linejoin="miter" stroke-miterlimit="10" cx="15" cy="0" r="5"/><path d="M 10,0 L -2,8 M 10,0 L -2,0 M 10,0 L -2,-8" stroke="rgb(51,102,153)" stroke-opacity="1" stroke-width="1" stroke-linecap="butt" stroke-linejoin="miter" stroke-miterlimit="10"/></g></defs></svg>